<svg data-v-423bf9ae="" xmlns="http://www.w3.org/2000/svg" viewBox="0 0 495 90" class="iconLeft"><!----><!----><!----><g data-v-423bf9ae="" id="bce6fe7f-4c8b-496a-8d33-5e3550dca89e" fill="white" transform="matrix(4.213483213791417,0,0,4.213483213791417,114.05145923145596,3.6657284832921704)"><path d="M5.60 13.93L5.60 13.93Q3.08 13.93 1.75 12.50L1.75 12.50L1.75 12.50Q0.42 11.06 0.42 8.50L0.42 8.50L0.42 8.50Q0.42 6.85 1.06 5.58L1.06 5.58L1.06 5.58Q1.69 4.31 2.86 3.61L2.86 3.61L2.86 3.61Q4.03 2.90 5.60 2.90L5.60 2.90L5.60 2.90Q6.89 2.90 7.87 3.31L7.87 3.31L7.87 3.31Q8.85 3.72 9.46 4.48L9.46 4.48L9.46 4.48Q9.72 4.77 9.72 5.31L9.72 5.31L9.72 5.31Q9.72 5.84 9.35 6.21L9.35 6.21L9.35 6.21Q8.97 6.58 8.44 6.58L8.44 6.58L8.44 6.58Q8.11 6.58 7.81 6.41L7.81 6.41L7.81 6.41Q7.50 6.24 7.34 5.96L7.34 5.96L7.34 5.96Q6.78 5.01 5.60 5.01L5.60 5.01L5.60 5.01Q4.54 5.01 3.89 5.84L3.89 5.84L3.89 5.84Q3.25 6.68 3.25 8.37L3.25 8.37L3.25 8.37Q3.25 10.11 3.91 10.96L3.91 10.96L3.91 10.96Q4.56 11.82 5.60 11.82L5.60 11.82L5.60 11.82Q6.83 11.82 7.42 10.75L7.42 10.75L7.42 10.75Q7.59 10.44 7.90 10.25L7.90 10.25L7.90 10.25Q8.20 10.07 8.57 10.07L8.57 10.07L8.57 10.07Q9.10 10.07 9.48 10.45L9.48 10.45L9.48 10.45Q9.87 10.84 9.87 11.38L9.87 11.38L9.87 11.38Q9.87 11.80 9.62 12.17L9.62 12.17L9.62 12.17Q8.33 13.93 5.60 13.93L5.60 13.93ZM12.14 13.80L12.14 13.80Q11.61 13.80 11.22 13.42L11.22 13.42L11.22 13.42Q10.84 13.03 10.84 12.50L10.84 12.50L10.84 7.15L10.84 7.15Q10.84 6.66 11.19 6.31L11.19 6.31L11.19 6.31Q11.55 5.95 12.04 5.95L12.04 5.95L12.04 5.95Q12.54 5.95 12.90 6.31L12.90 6.31L12.90 6.31Q13.26 6.66 13.26 7.15L13.26 7.15L13.26 7.49L13.31 7.49L13.31 7.49Q13.48 7.07 13.74 6.74L13.74 6.74L13.74 6.74Q14 6.41 14.25 6.27L14.25 6.27L14.25 6.27Q14.49 6.15 14.80 6.15L14.80 6.15L14.80 6.15Q15.43 6.15 15.72 6.50L15.72 6.50L15.72 6.50Q16.02 6.86 16.02 7.28L16.02 7.28L16.02 7.28Q16.02 7.71 15.71 8.05L15.71 8.05L15.71 8.05Q15.41 8.39 14.92 8.39L14.92 8.39L14.92 8.39Q14.63 8.39 14.33 8.51L14.33 8.51L14.33 8.51Q14.03 8.64 13.82 8.89L13.82 8.89L13.82 8.89Q13.44 9.35 13.44 10.21L13.44 10.21L13.44 12.50L13.44 12.50Q13.44 13.03 13.06 13.42L13.06 13.42L13.06 13.42Q12.67 13.80 12.14 13.80L12.14 13.80ZM20.01 13.90L20.01 13.90Q18.86 13.90 17.95 13.41L17.95 13.41L17.95 13.41Q17.04 12.92 16.52 12.01L16.52 12.01L16.52 12.01Q16.00 11.10 16.00 9.90L16.00 9.90L16.00 9.90Q16.00 8.74 16.49 7.82L16.49 7.82L16.49 7.82Q16.97 6.90 17.86 6.38L17.86 6.38L17.86 6.38Q18.76 5.87 19.95 5.87L19.95 5.87L19.95 5.87Q21.15 5.87 22.02 6.38L22.02 6.38L22.02 6.38Q22.89 6.89 23.33 7.71L23.33 7.71L23.33 7.71Q23.77 8.54 23.77 9.44L23.77 9.44L23.77 9.44Q23.77 10.01 23.51 10.29L23.51 10.29L23.51 10.29Q23.24 10.57 22.62 10.57L22.62 10.57L18.49 10.57L18.49 10.57Q18.56 11.26 18.98 11.66L18.98 11.66L18.98 11.66Q19.40 12.07 20.06 12.07L20.06 12.07L20.06 12.07Q20.45 12.07 20.72 11.94L20.72 11.94L20.72 11.94Q20.99 11.80 21.20 11.59L21.20 11.59L21.20 11.59Q21.39 11.41 21.55 11.32L21.55 11.32L21.55 11.32Q21.71 11.23 21.95 11.23L21.95 11.23L21.95 11.23Q22.39 11.23 22.69 11.54L22.69 11.54L22.69 11.54Q23.00 11.86 23.00 12.31L23.00 12.31L23.00 12.31Q23.00 12.80 22.58 13.15L22.58 13.15L22.58 13.15Q22.20 13.47 21.50 13.69L21.50 13.69L21.50 13.69Q20.80 13.90 20.01 13.90L20.01 13.90ZM18.51 9.04L21.27 9.04L21.27 9.04Q21.24 8.37 20.87 7.98L20.87 7.98L20.87 7.98Q20.50 7.59 19.91 7.59L19.91 7.59L19.91 7.59Q19.32 7.59 18.95 7.98L18.95 7.98L18.95 7.98Q18.58 8.37 18.51 9.04L18.51 9.04ZM27.50 13.86L27.50 13.86Q26.57 13.86 25.82 13.36L25.82 13.36L25.82 13.36Q25.07 12.87 24.64 11.93L24.64 11.93L24.64 11.93Q24.21 10.99 24.21 9.73L24.21 9.73L24.21 9.73Q24.21 8.65 24.56 7.79L24.56 7.79L24.56 7.79Q24.91 6.93 25.61 6.42L25.61 6.42L25.61 6.42Q26.32 5.91 27.36 5.91L27.36 5.91L27.36 5.91Q28.88 5.91 29.57 7.15L29.57 7.15L29.57 3.99L29.57 3.99Q29.57 3.46 29.95 3.07L29.95 3.07L29.95 3.07Q30.34 2.69 30.87 2.69L30.87 2.69L30.87 2.69Q31.40 2.69 31.79 3.07L31.79 3.07L31.79 3.07Q32.17 3.46 32.17 3.99L32.17 3.99L32.17 12.61L32.17 12.61Q32.17 13.10 31.82 13.45L31.82 13.45L31.82 13.45Q31.47 13.80 30.98 13.80L30.98 13.80L30.98 13.80Q30.55 13.80 30.21 13.54L30.21 13.54L30.21 13.54Q29.86 13.27 29.78 12.87L29.78 12.87L29.78 12.87Q29.43 13.29 28.92 13.57L28.92 13.57L28.92 13.57Q28.41 13.86 27.50 13.86L27.50 13.86ZM28.24 12.11L28.24 12.11Q28.87 12.11 29.25 11.58L29.25 11.58L29.25 11.58Q29.64 11.05 29.64 9.87L29.64 9.87L29.64 9.87Q29.64 8.79 29.25 8.26L29.25 8.26L29.25 8.26Q28.87 7.73 28.21 7.73L28.21 7.73L28.21 7.73Q27.61 7.73 27.22 8.25L27.22 8.25L27.22 8.25Q26.82 8.76 26.82 9.87L26.82 9.87L26.82 9.87Q26.82 10.99 27.22 11.55L27.22 11.55L27.22 11.55Q27.62 12.11 28.24 12.11L28.24 12.11ZM34.52 4.98L34.52 4.98Q34.08 4.98 33.75 4.66L33.75 4.66L33.75 4.66Q33.43 4.34 33.43 3.89L33.43 3.89L33.43 3.89Q33.43 3.44 33.75 3.12L33.75 3.12L33.75 3.12Q34.08 2.80 34.52 2.80L34.52 2.80L35.17 2.80L35.17 2.80Q35.62 2.80 35.94 3.12L35.94 3.12L35.94 3.12Q36.26 3.44 36.26 3.89L36.26 3.89L36.26 3.89Q36.26 4.34 35.94 4.66L35.94 4.66L35.94 4.66Q35.62 4.98 35.17 4.98L35.17 4.98L34.52 4.98ZM34.85 13.80L34.85 13.80Q34.31 13.80 33.93 13.42L33.93 13.42L33.93 13.42Q33.54 13.03 33.54 12.50L33.54 12.50L33.54 7.25L33.54 7.25Q33.54 6.72 33.93 6.33L33.93 6.33L33.93 6.33Q34.31 5.95 34.85 5.95L34.85 5.95L34.85 5.95Q35.38 5.95 35.76 6.33L35.76 6.33L35.76 6.33Q36.15 6.72 36.15 7.25L36.15 7.25L36.15 12.50L36.15 12.50Q36.15 13.03 35.76 13.42L35.76 13.42L35.76 13.42Q35.38 13.80 34.85 13.80L34.85 13.80ZM40.47 13.86L40.47 13.86Q39.13 13.86 38.57 13.20L38.57 13.20L38.57 13.20Q38.01 12.53 38.02 11.13L38.02 11.13L38.04 7.78L37.65 7.78L37.65 7.78Q37.30 7.78 37.04 7.53L37.04 7.53L37.04 7.53Q36.79 7.28 36.79 6.93L36.79 6.93L36.79 6.93Q36.79 6.57 37.04 6.31L37.04 6.31L37.04 6.31Q37.30 6.06 37.65 6.06L37.65 6.06L38.12 6.06L38.18 5.03L38.18 5.03Q38.21 4.56 38.55 4.23L38.55 4.23L38.55 4.23Q38.89 3.91 39.37 3.91L39.37 3.91L39.37 3.91Q39.86 3.91 40.21 4.26L40.21 4.26L40.21 4.26Q40.56 4.61 40.56 5.10L40.56 5.10L40.56 6.06L41.38 6.06L41.38 6.06Q41.73 6.06 41.99 6.31L41.99 6.31L41.99 6.31Q42.24 6.57 42.24 6.92L42.24 6.92L42.24 6.92Q42.24 7.28 41.99 7.53L41.99 7.53L41.99 7.53Q41.73 7.78 41.38 7.78L41.38 7.78L40.61 7.78L40.61 10.91L40.61 10.91Q40.61 11.48 40.86 11.72L40.86 11.72L40.86 11.72Q41.10 11.96 41.61 11.96L41.61 11.96L41.61 11.96Q41.93 12.03 42.15 12.29L42.15 12.29L42.15 12.29Q42.38 12.54 42.38 12.89L42.38 12.89L42.38 12.89Q42.38 13.19 42.22 13.42L42.22 13.42L42.22 13.42Q42.06 13.65 41.80 13.76L41.80 13.76L41.80 13.76Q41.24 13.86 40.47 13.86L40.47 13.86ZM48.26 13.80L48.26 13.80Q47.70 13.80 47.31 13.41L47.31 13.41L47.31 13.41Q46.91 13.02 46.91 12.46L46.91 12.46L46.91 4.31L46.91 4.31Q46.91 3.74 47.22 3.43L47.22 3.43L47.22 3.43Q47.53 3.12 48.10 3.12L48.10 3.12L51.53 3.12L51.53 3.12Q53.35 3.12 54.40 3.97L54.40 3.97L54.40 3.97Q55.44 4.82 55.44 6.36L55.44 6.36L55.44 6.36Q55.44 7.38 54.95 8.15L54.95 8.15L54.95 8.15Q54.46 8.92 53.56 9.35L53.56 9.35L53.56 9.38L54.88 11.91L54.88 11.91Q55.03 12.18 55.03 12.52L55.03 12.52L55.03 12.52Q55.03 13.05 54.66 13.43L54.66 13.43L54.66 13.43Q54.28 13.80 53.73 13.80L53.73 13.80L53.73 13.80Q53.37 13.80 53.05 13.62L53.05 13.62L53.05 13.62Q52.74 13.43 52.58 13.10L52.58 13.10L51.02 10.08L49.60 10.08L49.60 12.46L49.60 12.46Q49.60 13.02 49.21 13.41L49.21 13.41L49.21 13.41Q48.82 13.80 48.26 13.80L48.26 13.80ZM49.60 7.95L50.96 7.95L50.96 7.95Q51.74 7.95 52.21 7.64L52.21 7.64L52.21 7.64Q52.68 7.34 52.68 6.54L52.68 6.54L52.68 6.54Q52.68 5.71 52.22 5.40L52.22 5.40L52.22 5.40Q51.76 5.10 50.96 5.10L50.96 5.10L49.60 5.10L49.60 7.95ZM59.50 13.90L59.50 13.90Q58.35 13.90 57.44 13.41L57.44 13.41L57.44 13.41Q56.53 12.92 56.01 12.01L56.01 12.01L56.01 12.01Q55.50 11.10 55.50 9.90L55.50 9.90L55.50 9.90Q55.50 8.74 55.98 7.82L55.98 7.82L55.98 7.82Q56.46 6.90 57.36 6.38L57.36 6.38L57.36 6.38Q58.25 5.87 59.44 5.87L59.44 5.87L59.44 5.87Q60.65 5.87 61.52 6.38L61.52 6.38L61.52 6.38Q62.38 6.89 62.83 7.71L62.83 7.71L62.83 7.71Q63.27 8.54 63.27 9.44L63.27 9.44L63.27 9.44Q63.27 10.01 63 10.29L63 10.29L63 10.29Q62.73 10.57 62.12 10.57L62.12 10.57L57.99 10.57L57.99 10.57Q58.06 11.26 58.48 11.66L58.48 11.66L58.48 11.66Q58.90 12.07 59.56 12.07L59.56 12.07L59.56 12.07Q59.95 12.07 60.21 11.94L60.21 11.94L60.21 11.94Q60.48 11.80 60.69 11.59L60.69 11.59L60.69 11.59Q60.89 11.41 61.05 11.32L61.05 11.32L61.05 11.32Q61.21 11.23 61.45 11.23L61.45 11.23L61.45 11.23Q61.88 11.23 62.19 11.54L62.19 11.54L62.19 11.54Q62.50 11.86 62.50 12.31L62.50 12.31L62.50 12.31Q62.50 12.80 62.08 13.15L62.08 13.15L62.08 13.15Q61.70 13.47 61.00 13.69L61.00 13.69L61.00 13.69Q60.30 13.90 59.50 13.90L59.50 13.90ZM58.00 9.04L60.76 9.04L60.76 9.04Q60.73 8.37 60.36 7.98L60.36 7.98L60.36 7.98Q59.99 7.59 59.40 7.59L59.40 7.59L59.40 7.59Q58.81 7.59 58.44 7.98L58.44 7.98L58.44 7.98Q58.07 8.37 58.00 9.04L58.00 9.04ZM65.44 16.93L65.44 16.93Q64.90 16.93 64.52 16.54L64.52 16.54L64.52 16.54Q64.13 16.16 64.13 15.62L64.13 15.62L64.13 7.14L64.13 7.14Q64.13 6.65 64.48 6.30L64.48 6.30L64.48 6.30Q64.83 5.95 65.32 5.95L65.32 5.95L65.32 5.95Q65.83 5.95 66.18 6.30L66.18 6.30L66.18 6.30Q66.53 6.65 66.53 7.14L66.53 7.14L66.53 7.22L66.53 7.22Q66.99 6.59 67.55 6.25L67.55 6.25L67.55 6.25Q68.11 5.91 69.02 5.91L69.02 5.91L69.02 5.91Q70.03 5.91 70.72 6.42L70.72 6.42L70.72 6.42Q71.41 6.93 71.76 7.79L71.76 7.79L71.76 7.79Q72.10 8.65 72.10 9.73L72.10 9.73L72.10 9.73Q72.10 10.99 71.65 11.93L71.65 11.93L71.65 11.93Q71.20 12.87 70.41 13.36L70.41 13.36L70.41 13.36Q69.62 13.86 68.61 13.86L68.61 13.86L68.61 13.86Q67.54 13.86 66.74 13.15L66.74 13.15L66.74 15.62L66.74 15.62Q66.74 16.16 66.35 16.54L66.35 16.54L66.35 16.54Q65.97 16.93 65.44 16.93L65.44 16.93ZM68.07 12.11L68.07 12.11Q68.68 12.11 69.08 11.55L69.08 11.55L69.08 11.55Q69.48 10.99 69.48 9.87L69.48 9.87L69.48 9.87Q69.48 8.76 69.10 8.25L69.10 8.25L69.10 8.25Q68.71 7.73 68.12 7.73L68.12 7.73L68.12 7.73Q67.47 7.73 67.07 8.26L67.07 8.26L67.07 8.26Q66.67 8.79 66.67 9.87L66.67 9.87L66.67 9.87Q66.67 11.05 67.05 11.58L67.05 11.58L67.05 11.58Q67.44 12.11 68.07 12.11L68.07 12.11ZM75.12 13.87L75.12 13.87Q74.41 13.87 73.82 13.60L73.82 13.60L73.82 13.60Q73.22 13.33 72.87 12.80L72.87 12.80L72.87 12.80Q72.52 12.28 72.52 11.55L72.52 11.55L72.52 11.55Q72.52 10.07 73.64 9.57L73.64 9.57L73.64 9.57Q74.76 9.07 76.47 9.07L76.47 9.07L76.47 9.07Q76.79 9.07 76.94 9.09L76.94 9.09L77.42 9.10L77.42 9.10Q77.42 8.62 77.35 8.34L77.35 8.34L77.35 8.34Q77.28 8.05 77.05 7.88L77.05 7.88L77.05 7.88Q76.82 7.71 76.36 7.71L76.36 7.71L76.36 7.71Q75.71 7.71 75.40 8.12L75.40 8.12L75.40 8.12Q75.05 8.60 74.55 8.60L74.55 8.60L74.55 8.60Q74.09 8.60 73.76 8.27L73.76 8.27L73.76 8.27Q73.43 7.94 73.43 7.46L73.43 7.46L73.43 7.46Q73.43 7.18 73.56 6.94L73.56 6.94L73.56 6.94Q73.68 6.69 73.92 6.54L73.92 6.54L73.92 6.54Q74.44 6.20 75.08 6.03L75.08 6.03L75.08 6.03Q75.71 5.87 76.38 5.87L76.38 5.87L76.38 5.87Q78.12 5.87 79.02 6.61L79.02 6.61L79.02 6.61Q79.93 7.35 79.93 9.04L79.93 9.04L79.91 11.03L79.91 11.03Q79.91 11.55 79.93 11.80L79.93 11.80L79.94 12.59L79.94 12.59Q79.94 13.08 79.58 13.44L79.58 13.44L79.58 13.44Q79.23 13.80 78.72 13.80L78.72 13.80L78.72 13.80Q78.26 13.80 77.92 13.51L77.92 13.51L77.92 13.51Q77.59 13.22 77.52 12.77L77.52 12.77L77.52 12.77Q77.08 13.37 76.50 13.62L76.50 13.62L76.50 13.62Q75.92 13.87 75.12 13.87L75.12 13.87ZM75.98 12.21L75.98 12.21Q76.66 12.21 77.05 11.75L77.05 11.75L77.05 11.75Q77.43 11.28 77.43 10.58L77.43 10.58L77.43 10.47L76.61 10.46L76.61 10.46Q75.07 10.46 75.07 11.40L75.07 11.40L75.07 11.40Q75.07 11.77 75.33 11.99L75.33 11.99L75.33 11.99Q75.59 12.21 75.98 12.21L75.98 12.21ZM82.10 4.98L82.10 4.98Q81.65 4.98 81.33 4.66L81.33 4.66L81.33 4.66Q81.00 4.34 81.00 3.89L81.00 3.89L81.00 3.89Q81.00 3.44 81.33 3.12L81.33 3.12L81.33 3.12Q81.65 2.80 82.10 2.80L82.10 2.80L82.74 2.80L82.74 2.80Q83.19 2.80 83.51 3.12L83.51 3.12L83.51 3.12Q83.83 3.44 83.83 3.89L83.83 3.89L83.83 3.89Q83.83 4.34 83.51 4.66L83.51 4.66L83.51 4.66Q83.19 4.98 82.74 4.98L82.74 4.98L82.10 4.98ZM82.42 13.80L82.42 13.80Q81.89 13.80 81.50 13.42L81.50 13.42L81.50 13.42Q81.12 13.03 81.12 12.50L81.12 12.50L81.12 7.25L81.12 7.25Q81.12 6.72 81.50 6.33L81.50 6.33L81.50 6.33Q81.89 5.95 82.42 5.95L82.42 5.95L82.42 5.95Q82.95 5.95 83.34 6.33L83.34 6.33L83.34 6.33Q83.72 6.72 83.72 7.25L83.72 7.25L83.72 12.50L83.72 12.50Q83.72 13.03 83.34 13.42L83.34 13.42L83.34 13.42Q82.95 13.80 82.42 13.80L82.42 13.80ZM86.34 13.80L86.34 13.80Q85.81 13.80 85.42 13.42L85.42 13.42L85.42 13.42Q85.04 13.03 85.04 12.50L85.04 12.50L85.04 7.15L85.04 7.15Q85.04 6.66 85.39 6.31L85.39 6.31L85.39 6.31Q85.75 5.95 86.24 5.95L86.24 5.95L86.24 5.95Q86.74 5.95 87.10 6.31L87.10 6.31L87.10 6.31Q87.46 6.66 87.46 7.15L87.46 7.15L87.46 7.49L87.51 7.49L87.51 7.49Q87.68 7.07 87.94 6.74L87.94 6.74L87.94 6.74Q88.20 6.41 88.45 6.27L88.45 6.27L88.45 6.27Q88.69 6.15 89.00 6.15L89.00 6.15L89.00 6.15Q89.63 6.15 89.92 6.50L89.92 6.50L89.92 6.50Q90.22 6.86 90.22 7.28L90.22 7.28L90.22 7.28Q90.22 7.71 89.92 8.05L89.92 8.05L89.92 8.05Q89.61 8.39 89.12 8.39L89.12 8.39L89.12 8.39Q88.83 8.39 88.53 8.51L88.53 8.51L88.53 8.51Q88.23 8.64 88.02 8.89L88.02 8.89L88.02 8.89Q87.64 9.35 87.64 10.21L87.64 10.21L87.64 12.50L87.64 12.50Q87.64 13.03 87.26 13.42L87.26 13.42L87.26 13.42Q86.87 13.80 86.34 13.80L86.34 13.80Z"></path></g><!----><g data-v-423bf9ae="" id="5cf3148a-db1d-420d-b131-39e424aa88de" transform="matrix(2.994410458179972,0,0,2.994410458179972,0.08943266912044834,-1.9385669710569857)" stroke="none" fill="white"><path d="M17.572 23.933l4.106 7.095L32 13.189h-8.981V7.582L11.51.972 0 7.582v13.222l11.51 6.611 6.062-3.482zm10.96-8.744l-6.855 11.846-6.855-11.846h13.71z"></path></g><!----></svg>